# xmcd CD database file
#
# Track frame offsets:
#	150
#	34352
#	66001
#	99180
#	131232
#
# Disc length: 2197 seconds
#
# Revision: 0
# Processed by: cddbd v1.5.1PL0 Copyright (c) Steve Scherf et al.
# Submitted via: CDex 1.51
#
DISCID=40089305
DTITLE=平沢進 - ICE-9
DYEAR=2005
DGENRE=New Age
TTITLE0=ユーラシア２１℃
TTITLE1=廃墟の水溜り
TTITLE2=肺いっぱいの金属
TTITLE3=Nice Nice Very Nice
TTITLE4=カプセルを開けますか？
EXTD=YEAR: 2005
EXTT0=
EXTT1=
EXTT2=
EXTT3=
EXTT4=
PLAYORDER=
